<svg width="2657" height="443" viewBox="0 0 2657 443" fill="none" xmlns="http://www.w3.org/2000/svg">
<path d="M0.193182 96.0909V0.636351H379.455V96.0909H248.205V437H131.443V96.0909H0.193182ZM682.278 0.636351H800.744V280.182C800.744 313.42 792.789 342.185 776.88 366.474C761.113 390.622 739.096 409.301 710.829 422.511C682.562 435.58 649.749 442.114 612.391 442.114C574.749 442.114 541.795 435.58 513.528 422.511C485.261 409.301 463.244 390.622 447.477 366.474C431.852 342.185 424.039 313.42 424.039 280.182V0.636351H542.505V269.955C542.505 283.449 545.488 295.523 551.454 306.176C557.42 316.687 565.658 324.926 576.17 330.892C586.823 336.858 598.897 339.841 612.391 339.841C626.028 339.841 638.102 336.858 648.613 330.892C659.124 324.926 667.363 316.687 673.329 306.176C679.295 295.523 682.278 283.449 682.278 269.955V0.636351ZM1234.6 0.636351V437H1135.74L978.07 207.739H975.513V437H857.047V0.636351H957.615L1112.73 229.045H1116.14V0.636351H1234.6ZM1290.64 437V0.636351H1605.13V96.0909H1409.11V171.091H1588.94V266.545H1409.11V341.545H1604.28V437H1290.64ZM1831.78 437H1663.88V0.636351H1830.08C1874.96 0.636351 1913.74 9.37215 1946.41 26.8438C1979.22 44.1733 2004.51 69.1733 2022.26 101.844C2040.16 134.372 2049.11 173.364 2049.11 218.818C2049.11 264.273 2040.23 303.335 2022.48 336.006C2004.72 368.534 1979.58 393.534 1947.05 411.006C1914.52 428.335 1876.1 437 1831.78 437ZM1782.35 336.432H1827.52C1849.11 336.432 1867.5 332.952 1882.7 325.991C1898.04 319.031 1909.69 307.028 1917.65 289.983C1925.74 272.937 1929.79 249.216 1929.79 218.818C1929.79 188.42 1925.67 164.699 1917.43 147.653C1909.34 130.608 1897.41 118.605 1881.64 111.645C1866.01 104.685 1846.84 101.205 1824.11 101.205H1782.35V336.432ZM2222.39 0.636351V437H2103.92V0.636351H2222.39ZM2656.09 0.636351V437H2557.22L2399.55 207.739H2397V437H2278.53V0.636351H2379.1L2534.21 229.045H2537.62V0.636351H2656.09Z" fill="white"/>
</svg>
